<mxfile host="Electron" agent="Mozilla/5.0 (Windows NT 10.0; Win64; x64) AppleWebKit/537.36 (KHTML, like Gecko) draw.io/24.7.5 Chrome/126.0.6478.183 Electron/31.3.0 Safari/537.36" version="24.7.5">
  <diagram id="C5RBs43oDa-KdzZeNtuy" name="Page-1">
    <mxGraphModel dx="1220" dy="690" grid="1" gridSize="10" guides="1" tooltips="1" connect="1" arrows="1" fold="1" page="1" pageScale="1" pageWidth="827" pageHeight="1169" background="none" math="0" shadow="0">
      <root>
        <mxCell id="WIyWlLk6GJQsqaUBKTNV-0" />
        <mxCell id="WIyWlLk6GJQsqaUBKTNV-1" parent="WIyWlLk6GJQsqaUBKTNV-0" />
        <mxCell id="ogpBPKNxfYmx3dcX6W-Z-0" value="start" style="ellipse;whiteSpace=wrap;html=1;fontFamily=Times New Roman;fontSize=16;" vertex="1" parent="WIyWlLk6GJQsqaUBKTNV-1">
          <mxGeometry x="300" y="10" width="120" height="40" as="geometry" />
        </mxCell>
        <mxCell id="ogpBPKNxfYmx3dcX6W-Z-1" value="intilialize fingerprint" style="shape=parallelogram;perimeter=parallelogramPerimeter;whiteSpace=wrap;html=1;fixedSize=1;fontFamily=Times New Roman;fontSize=16;" vertex="1" parent="WIyWlLk6GJQsqaUBKTNV-1">
          <mxGeometry x="285" y="80" width="150" height="40" as="geometry" />
        </mxCell>
        <mxCell id="ogpBPKNxfYmx3dcX6W-Z-4" value="Display: attendance system" style="strokeWidth=2;html=1;shape=mxgraph.flowchart.display;whiteSpace=wrap;fontFamily=Times New Roman;fontSize=16;" vertex="1" parent="WIyWlLk6GJQsqaUBKTNV-1">
          <mxGeometry x="280" y="170" width="160" height="60" as="geometry" />
        </mxCell>
        <mxCell id="ogpBPKNxfYmx3dcX6W-Z-5" value="connected?" style="strokeWidth=2;html=1;shape=mxgraph.flowchart.decision;whiteSpace=wrap;fontFamily=Times New Roman;fontSize=16;" vertex="1" parent="WIyWlLk6GJQsqaUBKTNV-1">
          <mxGeometry x="270" y="270" width="180" height="80" as="geometry" />
        </mxCell>
        <mxCell id="ogpBPKNxfYmx3dcX6W-Z-6" value="Display: Not connected" style="strokeWidth=2;html=1;shape=mxgraph.flowchart.display;whiteSpace=wrap;fontFamily=Times New Roman;fontSize=16;" vertex="1" parent="WIyWlLk6GJQsqaUBKTNV-1">
          <mxGeometry x="627" y="280" width="180" height="60" as="geometry" />
        </mxCell>
        <mxCell id="ogpBPKNxfYmx3dcX6W-Z-7" value="TURN HOTSPOT ON" style="rounded=0;whiteSpace=wrap;html=1;fontFamily=Times New Roman;fontSize=16;" vertex="1" parent="WIyWlLk6GJQsqaUBKTNV-1">
          <mxGeometry x="657" y="380" width="130" height="50" as="geometry" />
        </mxCell>
        <mxCell id="ogpBPKNxfYmx3dcX6W-Z-8" value="TURN WEBSERVER" style="rounded=0;whiteSpace=wrap;html=1;fontFamily=Times New Roman;fontSize=16;" vertex="1" parent="WIyWlLk6GJQsqaUBKTNV-1">
          <mxGeometry x="657" y="460" width="130" height="50" as="geometry" />
        </mxCell>
        <mxCell id="ogpBPKNxfYmx3dcX6W-Z-9" value="Submitted credidntials" style="rhombus;whiteSpace=wrap;html=1;fontFamily=Times New Roman;fontSize=16;" vertex="1" parent="WIyWlLk6GJQsqaUBKTNV-1">
          <mxGeometry x="627" y="550" width="200" height="80" as="geometry" />
        </mxCell>
        <mxCell id="ogpBPKNxfYmx3dcX6W-Z-10" value="Display: connected&amp;nbsp;" style="strokeWidth=2;html=1;shape=mxgraph.flowchart.display;whiteSpace=wrap;fontFamily=Times New Roman;fontSize=16;" vertex="1" parent="WIyWlLk6GJQsqaUBKTNV-1">
          <mxGeometry x="260" y="390" width="200" height="60" as="geometry" />
        </mxCell>
        <mxCell id="ogpBPKNxfYmx3dcX6W-Z-11" value="while" style="strokeWidth=2;html=1;shape=mxgraph.flowchart.decision;whiteSpace=wrap;fontFamily=Times New Roman;fontSize=16;" vertex="1" parent="WIyWlLk6GJQsqaUBKTNV-1">
          <mxGeometry x="265" y="500" width="190" height="50" as="geometry" />
        </mxCell>
        <mxCell id="ogpBPKNxfYmx3dcX6W-Z-12" value="Read Fingerprint" style="rounded=0;whiteSpace=wrap;html=1;fontFamily=Times New Roman;fontSize=16;" vertex="1" parent="WIyWlLk6GJQsqaUBKTNV-1">
          <mxGeometry x="300" y="600" width="120" height="50" as="geometry" />
        </mxCell>
        <mxCell id="ogpBPKNxfYmx3dcX6W-Z-13" value="Display: kindly register&amp;nbsp;" style="strokeWidth=2;html=1;shape=mxgraph.flowchart.display;whiteSpace=wrap;fontFamily=Times New Roman;fontSize=16;" vertex="1" parent="WIyWlLk6GJQsqaUBKTNV-1">
          <mxGeometry x="455" y="660" width="150" height="60" as="geometry" />
        </mxCell>
        <mxCell id="ogpBPKNxfYmx3dcX6W-Z-14" value="Request=attendance?" style="strokeWidth=2;html=1;shape=mxgraph.flowchart.decision;whiteSpace=wrap;fontFamily=Times New Roman;fontSize=16;" vertex="1" parent="WIyWlLk6GJQsqaUBKTNV-1">
          <mxGeometry x="265" y="720" width="190" height="80" as="geometry" />
        </mxCell>
        <mxCell id="ogpBPKNxfYmx3dcX6W-Z-15" value="send data to databse" style="rounded=0;whiteSpace=wrap;html=1;fontFamily=Times New Roman;fontSize=16;" vertex="1" parent="WIyWlLk6GJQsqaUBKTNV-1">
          <mxGeometry x="300" y="840" width="120" height="40" as="geometry" />
        </mxCell>
        <mxCell id="ogpBPKNxfYmx3dcX6W-Z-16" value="Get response" style="rounded=0;whiteSpace=wrap;html=1;fontFamily=Times New Roman;fontSize=16;" vertex="1" parent="WIyWlLk6GJQsqaUBKTNV-1">
          <mxGeometry x="300" y="920" width="120" height="40" as="geometry" />
        </mxCell>
        <mxCell id="ogpBPKNxfYmx3dcX6W-Z-17" value="Display: Attendance system recorded" style="strokeWidth=2;html=1;shape=mxgraph.flowchart.display;whiteSpace=wrap;fontFamily=Times New Roman;fontSize=16;" vertex="1" parent="WIyWlLk6GJQsqaUBKTNV-1">
          <mxGeometry x="270" y="1090" width="170" height="70" as="geometry" />
        </mxCell>
        <mxCell id="ogpBPKNxfYmx3dcX6W-Z-18" value="End" style="ellipse;whiteSpace=wrap;html=1;fontFamily=Times New Roman;fontSize=16;" vertex="1" parent="WIyWlLk6GJQsqaUBKTNV-1">
          <mxGeometry x="310" y="1220" width="120" height="50" as="geometry" />
        </mxCell>
        <mxCell id="ogpBPKNxfYmx3dcX6W-Z-20" value="" style="endArrow=classic;html=1;rounded=0;fontFamily=Times New Roman;fontSize=16;" edge="1" parent="WIyWlLk6GJQsqaUBKTNV-1" source="ogpBPKNxfYmx3dcX6W-Z-0">
          <mxGeometry width="50" height="50" relative="1" as="geometry">
            <mxPoint x="320" y="260" as="sourcePoint" />
            <mxPoint x="360" y="80" as="targetPoint" />
          </mxGeometry>
        </mxCell>
        <mxCell id="ogpBPKNxfYmx3dcX6W-Z-21" value="" style="endArrow=classic;html=1;rounded=0;exitX=0.5;exitY=1;exitDx=0;exitDy=0;fontFamily=Times New Roman;fontSize=16;" edge="1" parent="WIyWlLk6GJQsqaUBKTNV-1" source="ogpBPKNxfYmx3dcX6W-Z-1">
          <mxGeometry width="50" height="50" relative="1" as="geometry">
            <mxPoint x="360" y="140" as="sourcePoint" />
            <mxPoint x="359.5" y="170" as="targetPoint" />
            <Array as="points">
              <mxPoint x="359.5" y="160" />
            </Array>
          </mxGeometry>
        </mxCell>
        <mxCell id="ogpBPKNxfYmx3dcX6W-Z-28" value="" style="endArrow=classic;html=1;rounded=0;entryX=0.5;entryY=0;entryDx=0;entryDy=0;entryPerimeter=0;fontFamily=Times New Roman;fontSize=16;" edge="1" parent="WIyWlLk6GJQsqaUBKTNV-1" target="ogpBPKNxfYmx3dcX6W-Z-10">
          <mxGeometry width="50" height="50" relative="1" as="geometry">
            <mxPoint x="360" y="350" as="sourcePoint" />
            <mxPoint x="410" y="300" as="targetPoint" />
          </mxGeometry>
        </mxCell>
        <mxCell id="ogpBPKNxfYmx3dcX6W-Z-30" value="" style="endArrow=classic;html=1;rounded=0;entryX=0.5;entryY=0;entryDx=0;entryDy=0;entryPerimeter=0;fontFamily=Times New Roman;fontSize=16;" edge="1" parent="WIyWlLk6GJQsqaUBKTNV-1" target="ogpBPKNxfYmx3dcX6W-Z-5">
          <mxGeometry width="50" height="50" relative="1" as="geometry">
            <mxPoint x="360" y="230" as="sourcePoint" />
            <mxPoint x="410" y="180" as="targetPoint" />
          </mxGeometry>
        </mxCell>
        <mxCell id="ogpBPKNxfYmx3dcX6W-Z-31" value="" style="endArrow=classic;html=1;rounded=0;entryX=0.5;entryY=0;entryDx=0;entryDy=0;entryPerimeter=0;fontFamily=Times New Roman;fontSize=16;" edge="1" parent="WIyWlLk6GJQsqaUBKTNV-1" target="ogpBPKNxfYmx3dcX6W-Z-11">
          <mxGeometry width="50" height="50" relative="1" as="geometry">
            <mxPoint x="360" y="450" as="sourcePoint" />
            <mxPoint x="410" y="400" as="targetPoint" />
          </mxGeometry>
        </mxCell>
        <mxCell id="ogpBPKNxfYmx3dcX6W-Z-32" value="" style="endArrow=classic;html=1;rounded=0;entryX=0.5;entryY=0;entryDx=0;entryDy=0;fontFamily=Times New Roman;fontSize=16;" edge="1" parent="WIyWlLk6GJQsqaUBKTNV-1" target="ogpBPKNxfYmx3dcX6W-Z-12">
          <mxGeometry width="50" height="50" relative="1" as="geometry">
            <mxPoint x="360" y="550" as="sourcePoint" />
            <mxPoint x="410" y="500" as="targetPoint" />
          </mxGeometry>
        </mxCell>
        <mxCell id="ogpBPKNxfYmx3dcX6W-Z-33" value="" style="endArrow=classic;html=1;rounded=0;entryX=0.5;entryY=0;entryDx=0;entryDy=0;entryPerimeter=0;fontFamily=Times New Roman;fontSize=16;" edge="1" parent="WIyWlLk6GJQsqaUBKTNV-1" target="ogpBPKNxfYmx3dcX6W-Z-14">
          <mxGeometry width="50" height="50" relative="1" as="geometry">
            <mxPoint x="360" y="650" as="sourcePoint" />
            <mxPoint x="410" y="600" as="targetPoint" />
          </mxGeometry>
        </mxCell>
        <mxCell id="ogpBPKNxfYmx3dcX6W-Z-34" value="" style="endArrow=classic;html=1;rounded=0;entryX=0.5;entryY=0;entryDx=0;entryDy=0;fontFamily=Times New Roman;fontSize=16;" edge="1" parent="WIyWlLk6GJQsqaUBKTNV-1" target="ogpBPKNxfYmx3dcX6W-Z-15">
          <mxGeometry width="50" height="50" relative="1" as="geometry">
            <mxPoint x="360" y="800" as="sourcePoint" />
            <mxPoint x="410" y="750" as="targetPoint" />
          </mxGeometry>
        </mxCell>
        <mxCell id="ogpBPKNxfYmx3dcX6W-Z-35" value="" style="endArrow=classic;html=1;rounded=0;entryX=0.5;entryY=0;entryDx=0;entryDy=0;fontFamily=Times New Roman;fontSize=16;" edge="1" parent="WIyWlLk6GJQsqaUBKTNV-1" target="ogpBPKNxfYmx3dcX6W-Z-16">
          <mxGeometry width="50" height="50" relative="1" as="geometry">
            <mxPoint x="360" y="880" as="sourcePoint" />
            <mxPoint x="410" y="830" as="targetPoint" />
          </mxGeometry>
        </mxCell>
        <mxCell id="ogpBPKNxfYmx3dcX6W-Z-36" value="" style="endArrow=classic;html=1;rounded=0;fontFamily=Times New Roman;fontSize=16;" edge="1" parent="WIyWlLk6GJQsqaUBKTNV-1">
          <mxGeometry width="50" height="50" relative="1" as="geometry">
            <mxPoint x="360" y="960" as="sourcePoint" />
            <mxPoint x="360" y="1000" as="targetPoint" />
          </mxGeometry>
        </mxCell>
        <mxCell id="ogpBPKNxfYmx3dcX6W-Z-41" value="" style="endArrow=classic;html=1;rounded=0;entryX=0;entryY=0.5;entryDx=0;entryDy=0;entryPerimeter=0;fontFamily=Times New Roman;fontSize=16;" edge="1" parent="WIyWlLk6GJQsqaUBKTNV-1" target="ogpBPKNxfYmx3dcX6W-Z-6">
          <mxGeometry width="50" height="50" relative="1" as="geometry">
            <mxPoint x="450" y="310" as="sourcePoint" />
            <mxPoint x="500" y="260" as="targetPoint" />
          </mxGeometry>
        </mxCell>
        <mxCell id="ogpBPKNxfYmx3dcX6W-Z-42" value="" style="endArrow=classic;html=1;rounded=0;fontFamily=Times New Roman;fontSize=16;" edge="1" parent="WIyWlLk6GJQsqaUBKTNV-1">
          <mxGeometry width="50" height="50" relative="1" as="geometry">
            <mxPoint x="727" y="340" as="sourcePoint" />
            <mxPoint x="727" y="380" as="targetPoint" />
          </mxGeometry>
        </mxCell>
        <mxCell id="ogpBPKNxfYmx3dcX6W-Z-44" value="" style="endArrow=classic;html=1;rounded=0;fontFamily=Times New Roman;fontSize=16;" edge="1" parent="WIyWlLk6GJQsqaUBKTNV-1">
          <mxGeometry width="50" height="50" relative="1" as="geometry">
            <mxPoint x="727" y="430" as="sourcePoint" />
            <mxPoint x="727" y="460" as="targetPoint" />
          </mxGeometry>
        </mxCell>
        <mxCell id="ogpBPKNxfYmx3dcX6W-Z-45" value="" style="endArrow=classic;html=1;rounded=0;fontFamily=Times New Roman;fontSize=16;" edge="1" parent="WIyWlLk6GJQsqaUBKTNV-1">
          <mxGeometry width="50" height="50" relative="1" as="geometry">
            <mxPoint x="727" y="510" as="sourcePoint" />
            <mxPoint x="727" y="550" as="targetPoint" />
          </mxGeometry>
        </mxCell>
        <mxCell id="ogpBPKNxfYmx3dcX6W-Z-46" value="" style="endArrow=none;html=1;rounded=0;fontFamily=Times New Roman;fontSize=16;" edge="1" parent="WIyWlLk6GJQsqaUBKTNV-1">
          <mxGeometry width="50" height="50" relative="1" as="geometry">
            <mxPoint x="530" y="660" as="sourcePoint" />
            <mxPoint x="530" y="570" as="targetPoint" />
          </mxGeometry>
        </mxCell>
        <mxCell id="ogpBPKNxfYmx3dcX6W-Z-48" value="" style="endArrow=classic;html=1;rounded=0;fontFamily=Times New Roman;fontSize=16;" edge="1" parent="WIyWlLk6GJQsqaUBKTNV-1">
          <mxGeometry width="50" height="50" relative="1" as="geometry">
            <mxPoint x="530" y="570" as="sourcePoint" />
            <mxPoint x="360" y="570" as="targetPoint" />
          </mxGeometry>
        </mxCell>
        <mxCell id="ogpBPKNxfYmx3dcX6W-Z-49" value="" style="endArrow=none;html=1;rounded=0;fontFamily=Times New Roman;fontSize=16;" edge="1" parent="WIyWlLk6GJQsqaUBKTNV-1">
          <mxGeometry width="50" height="50" relative="1" as="geometry">
            <mxPoint x="530" y="760" as="sourcePoint" />
            <mxPoint x="530" y="720" as="targetPoint" />
          </mxGeometry>
        </mxCell>
        <mxCell id="ogpBPKNxfYmx3dcX6W-Z-51" value="Display: not registered,please register" style="strokeWidth=2;html=1;shape=mxgraph.flowchart.display;whiteSpace=wrap;fontFamily=Times New Roman;fontSize=16;" vertex="1" parent="WIyWlLk6GJQsqaUBKTNV-1">
          <mxGeometry x="40" y="832" width="220" height="70" as="geometry" />
        </mxCell>
        <mxCell id="ogpBPKNxfYmx3dcX6W-Z-53" value="check if registered" style="strokeWidth=2;html=1;shape=mxgraph.flowchart.decision;whiteSpace=wrap;fontFamily=Times New Roman;fontSize=16;" vertex="1" parent="WIyWlLk6GJQsqaUBKTNV-1">
          <mxGeometry x="275" y="999" width="170" height="61" as="geometry" />
        </mxCell>
        <mxCell id="ogpBPKNxfYmx3dcX6W-Z-54" value="" style="endArrow=classic;html=1;rounded=0;fontFamily=Times New Roman;fontSize=16;" edge="1" parent="WIyWlLk6GJQsqaUBKTNV-1">
          <mxGeometry width="50" height="50" relative="1" as="geometry">
            <mxPoint x="360" y="1060" as="sourcePoint" />
            <mxPoint x="360" y="1090" as="targetPoint" />
          </mxGeometry>
        </mxCell>
        <mxCell id="ogpBPKNxfYmx3dcX6W-Z-56" value="" style="endArrow=none;html=1;rounded=0;fontFamily=Times New Roman;fontSize=16;" edge="1" parent="WIyWlLk6GJQsqaUBKTNV-1">
          <mxGeometry width="50" height="50" relative="1" as="geometry">
            <mxPoint x="160" y="830" as="sourcePoint" />
            <mxPoint x="160" y="700" as="targetPoint" />
          </mxGeometry>
        </mxCell>
        <mxCell id="ogpBPKNxfYmx3dcX6W-Z-57" value="" style="endArrow=classic;html=1;rounded=0;fontFamily=Times New Roman;fontSize=16;" edge="1" parent="WIyWlLk6GJQsqaUBKTNV-1">
          <mxGeometry width="50" height="50" relative="1" as="geometry">
            <mxPoint x="160" y="700" as="sourcePoint" />
            <mxPoint x="360" y="680" as="targetPoint" />
            <Array as="points">
              <mxPoint x="160" y="680" />
            </Array>
          </mxGeometry>
        </mxCell>
        <mxCell id="ogpBPKNxfYmx3dcX6W-Z-58" value="" style="endArrow=none;html=1;rounded=0;fontFamily=Times New Roman;fontSize=16;" edge="1" parent="WIyWlLk6GJQsqaUBKTNV-1">
          <mxGeometry width="50" height="50" relative="1" as="geometry">
            <mxPoint x="160" y="1030" as="sourcePoint" />
            <mxPoint x="270" y="1030" as="targetPoint" />
          </mxGeometry>
        </mxCell>
        <mxCell id="ogpBPKNxfYmx3dcX6W-Z-59" value="" style="endArrow=classic;html=1;rounded=0;entryX=0.553;entryY=1.024;entryDx=0;entryDy=0;entryPerimeter=0;fontFamily=Times New Roman;fontSize=16;" edge="1" parent="WIyWlLk6GJQsqaUBKTNV-1" target="ogpBPKNxfYmx3dcX6W-Z-51">
          <mxGeometry width="50" height="50" relative="1" as="geometry">
            <mxPoint x="160" y="1030" as="sourcePoint" />
            <mxPoint x="210" y="980" as="targetPoint" />
          </mxGeometry>
        </mxCell>
        <mxCell id="ogpBPKNxfYmx3dcX6W-Z-60" value="" style="endArrow=none;html=1;rounded=0;fontFamily=Times New Roman;fontSize=16;" edge="1" parent="WIyWlLk6GJQsqaUBKTNV-1">
          <mxGeometry width="50" height="50" relative="1" as="geometry">
            <mxPoint x="20" y="1130" as="sourcePoint" />
            <mxPoint x="270" y="1130" as="targetPoint" />
          </mxGeometry>
        </mxCell>
        <mxCell id="ogpBPKNxfYmx3dcX6W-Z-61" value="" style="endArrow=none;html=1;rounded=0;fontFamily=Times New Roman;fontSize=16;" edge="1" parent="WIyWlLk6GJQsqaUBKTNV-1">
          <mxGeometry width="50" height="50" relative="1" as="geometry">
            <mxPoint x="20" y="1130" as="sourcePoint" />
            <mxPoint x="20" y="520" as="targetPoint" />
          </mxGeometry>
        </mxCell>
        <mxCell id="ogpBPKNxfYmx3dcX6W-Z-62" value="" style="endArrow=classic;html=1;rounded=0;fontFamily=Times New Roman;fontSize=16;" edge="1" parent="WIyWlLk6GJQsqaUBKTNV-1">
          <mxGeometry width="50" height="50" relative="1" as="geometry">
            <mxPoint x="20" y="520" as="sourcePoint" />
            <mxPoint x="260" y="520" as="targetPoint" />
          </mxGeometry>
        </mxCell>
        <mxCell id="ogpBPKNxfYmx3dcX6W-Z-65" value="" style="endArrow=none;html=1;rounded=0;fontFamily=Times New Roman;fontSize=16;" edge="1" parent="WIyWlLk6GJQsqaUBKTNV-1">
          <mxGeometry width="50" height="50" relative="1" as="geometry">
            <mxPoint x="726.5" y="680" as="sourcePoint" />
            <mxPoint x="726.5" y="630" as="targetPoint" />
          </mxGeometry>
        </mxCell>
        <mxCell id="ogpBPKNxfYmx3dcX6W-Z-67" value="" style="endArrow=none;html=1;rounded=0;fontFamily=Times New Roman;fontSize=16;" edge="1" parent="WIyWlLk6GJQsqaUBKTNV-1">
          <mxGeometry width="50" height="50" relative="1" as="geometry">
            <mxPoint x="850" y="680" as="sourcePoint" />
            <mxPoint x="850" y="240" as="targetPoint" />
          </mxGeometry>
        </mxCell>
        <mxCell id="ogpBPKNxfYmx3dcX6W-Z-68" value="" style="endArrow=classic;html=1;rounded=0;fontFamily=Times New Roman;fontSize=16;" edge="1" parent="WIyWlLk6GJQsqaUBKTNV-1">
          <mxGeometry width="50" height="50" relative="1" as="geometry">
            <mxPoint x="850" y="240" as="sourcePoint" />
            <mxPoint x="360" y="240" as="targetPoint" />
          </mxGeometry>
        </mxCell>
        <mxCell id="ogpBPKNxfYmx3dcX6W-Z-69" value="NO" style="text;html=1;align=center;verticalAlign=middle;resizable=0;points=[];autosize=1;strokeColor=none;fillColor=none;fontFamily=Times New Roman;fontSize=16;" vertex="1" parent="WIyWlLk6GJQsqaUBKTNV-1">
          <mxGeometry x="425" y="278" width="50" height="30" as="geometry" />
        </mxCell>
        <mxCell id="ogpBPKNxfYmx3dcX6W-Z-70" value="YES" style="text;html=1;align=center;verticalAlign=middle;resizable=0;points=[];autosize=1;strokeColor=none;fillColor=none;fontFamily=Times New Roman;fontSize=16;" vertex="1" parent="WIyWlLk6GJQsqaUBKTNV-1">
          <mxGeometry x="364" y="340" width="50" height="30" as="geometry" />
        </mxCell>
        <mxCell id="ogpBPKNxfYmx3dcX6W-Z-73" value="" style="endArrow=none;html=1;rounded=0;fontFamily=Times New Roman;fontSize=16;" edge="1" parent="WIyWlLk6GJQsqaUBKTNV-1">
          <mxGeometry width="50" height="50" relative="1" as="geometry">
            <mxPoint x="730" y="680" as="sourcePoint" />
            <mxPoint x="850" y="680" as="targetPoint" />
          </mxGeometry>
        </mxCell>
        <mxCell id="ogpBPKNxfYmx3dcX6W-Z-74" value="YES" style="text;html=1;align=center;verticalAlign=middle;resizable=0;points=[];autosize=1;strokeColor=none;fillColor=none;fontFamily=Times New Roman;fontSize=16;" vertex="1" parent="WIyWlLk6GJQsqaUBKTNV-1">
          <mxGeometry x="355" y="538" width="50" height="30" as="geometry" />
        </mxCell>
        <mxCell id="ogpBPKNxfYmx3dcX6W-Z-75" value="" style="endArrow=none;html=1;rounded=0;fontFamily=Times New Roman;fontSize=16;" edge="1" parent="WIyWlLk6GJQsqaUBKTNV-1">
          <mxGeometry width="50" height="50" relative="1" as="geometry">
            <mxPoint x="455" y="520" as="sourcePoint" />
            <mxPoint x="610" y="520" as="targetPoint" />
          </mxGeometry>
        </mxCell>
        <mxCell id="ogpBPKNxfYmx3dcX6W-Z-76" value="" style="endArrow=none;html=1;rounded=0;fontFamily=Times New Roman;fontSize=16;" edge="1" parent="WIyWlLk6GJQsqaUBKTNV-1">
          <mxGeometry width="50" height="50" relative="1" as="geometry">
            <mxPoint x="610" y="520" as="sourcePoint" />
            <mxPoint x="610" y="1252" as="targetPoint" />
          </mxGeometry>
        </mxCell>
        <mxCell id="ogpBPKNxfYmx3dcX6W-Z-77" value="" style="endArrow=classic;html=1;rounded=0;fontFamily=Times New Roman;fontSize=16;" edge="1" parent="WIyWlLk6GJQsqaUBKTNV-1">
          <mxGeometry width="50" height="50" relative="1" as="geometry">
            <mxPoint x="610" y="1250" as="sourcePoint" />
            <mxPoint x="430" y="1250" as="targetPoint" />
          </mxGeometry>
        </mxCell>
        <mxCell id="ogpBPKNxfYmx3dcX6W-Z-91" value="" style="edgeStyle=elbowEdgeStyle;rounded=0;orthogonalLoop=1;jettySize=auto;html=1;" edge="1" parent="WIyWlLk6GJQsqaUBKTNV-1" source="ogpBPKNxfYmx3dcX6W-Z-78" target="ogpBPKNxfYmx3dcX6W-Z-79">
          <mxGeometry relative="1" as="geometry" />
        </mxCell>
        <mxCell id="ogpBPKNxfYmx3dcX6W-Z-78" value="Database" style="strokeWidth=2;html=1;shape=mxgraph.flowchart.database;whiteSpace=wrap;fontFamily=Times New Roman;fontSize=16;" vertex="1" parent="WIyWlLk6GJQsqaUBKTNV-1">
          <mxGeometry x="480" y="920" width="60" height="60" as="geometry" />
        </mxCell>
        <mxCell id="ogpBPKNxfYmx3dcX6W-Z-79" value="webserver application" style="ellipse;shape=cloud;whiteSpace=wrap;html=1;fontFamily=Times New Roman;fontSize=16;" vertex="1" parent="WIyWlLk6GJQsqaUBKTNV-1">
          <mxGeometry x="420" y="1020" width="190" height="90" as="geometry" />
        </mxCell>
        <mxCell id="ogpBPKNxfYmx3dcX6W-Z-80" value="" style="endArrow=none;html=1;rounded=0;fontFamily=Times New Roman;fontSize=16;" edge="1" parent="WIyWlLk6GJQsqaUBKTNV-1">
          <mxGeometry width="50" height="50" relative="1" as="geometry">
            <mxPoint x="420" y="860" as="sourcePoint" />
            <mxPoint x="520" y="860" as="targetPoint" />
          </mxGeometry>
        </mxCell>
        <mxCell id="ogpBPKNxfYmx3dcX6W-Z-81" value="" style="endArrow=classic;html=1;rounded=0;entryX=0.678;entryY=0.028;entryDx=0;entryDy=0;entryPerimeter=0;fontFamily=Times New Roman;fontSize=16;" edge="1" parent="WIyWlLk6GJQsqaUBKTNV-1" target="ogpBPKNxfYmx3dcX6W-Z-78">
          <mxGeometry width="50" height="50" relative="1" as="geometry">
            <mxPoint x="520" y="860" as="sourcePoint" />
            <mxPoint x="570" y="810" as="targetPoint" />
          </mxGeometry>
        </mxCell>
        <mxCell id="ogpBPKNxfYmx3dcX6W-Z-83" value="YES" style="text;html=1;align=center;verticalAlign=middle;resizable=0;points=[];autosize=1;strokeColor=none;fillColor=none;fontFamily=Times New Roman;fontSize=16;" vertex="1" parent="WIyWlLk6GJQsqaUBKTNV-1">
          <mxGeometry x="715" y="628" width="50" height="30" as="geometry" />
        </mxCell>
        <mxCell id="ogpBPKNxfYmx3dcX6W-Z-84" value="" style="curved=1;endArrow=classic;html=1;rounded=0;fontFamily=Times New Roman;fontSize=16;" edge="1" parent="WIyWlLk6GJQsqaUBKTNV-1">
          <mxGeometry width="50" height="50" relative="1" as="geometry">
            <mxPoint x="820" y="592" as="sourcePoint" />
            <mxPoint x="730" y="532" as="targetPoint" />
            <Array as="points">
              <mxPoint x="870" y="592" />
              <mxPoint x="820" y="542" />
            </Array>
          </mxGeometry>
        </mxCell>
        <mxCell id="ogpBPKNxfYmx3dcX6W-Z-85" value="NO" style="text;html=1;align=center;verticalAlign=middle;resizable=0;points=[];autosize=1;strokeColor=none;fillColor=none;fontFamily=Times New Roman;fontSize=16;" vertex="1" parent="WIyWlLk6GJQsqaUBKTNV-1">
          <mxGeometry x="805" y="588" width="50" height="30" as="geometry" />
        </mxCell>
        <mxCell id="ogpBPKNxfYmx3dcX6W-Z-86" value="YES" style="text;html=1;align=center;verticalAlign=middle;resizable=0;points=[];autosize=1;strokeColor=none;fillColor=none;fontFamily=Times New Roman;fontSize=16;" vertex="1" parent="WIyWlLk6GJQsqaUBKTNV-1">
          <mxGeometry x="365" y="1048" width="50" height="30" as="geometry" />
        </mxCell>
        <mxCell id="ogpBPKNxfYmx3dcX6W-Z-87" value="NO" style="text;html=1;align=center;verticalAlign=middle;resizable=0;points=[];autosize=1;strokeColor=none;fillColor=none;fontFamily=Times New Roman;fontSize=16;" vertex="1" parent="WIyWlLk6GJQsqaUBKTNV-1">
          <mxGeometry x="230" y="999" width="50" height="30" as="geometry" />
        </mxCell>
        <mxCell id="ogpBPKNxfYmx3dcX6W-Z-88" value="" style="endArrow=none;html=1;rounded=0;fontFamily=Times New Roman;fontSize=16;" edge="1" parent="WIyWlLk6GJQsqaUBKTNV-1">
          <mxGeometry width="50" height="50" relative="1" as="geometry">
            <mxPoint x="455" y="760" as="sourcePoint" />
            <mxPoint x="530" y="760" as="targetPoint" />
          </mxGeometry>
        </mxCell>
        <mxCell id="ogpBPKNxfYmx3dcX6W-Z-89" value="NO" style="text;html=1;align=center;verticalAlign=middle;resizable=0;points=[];autosize=1;strokeColor=none;fillColor=none;fontFamily=Times New Roman;fontSize=16;" vertex="1" parent="WIyWlLk6GJQsqaUBKTNV-1">
          <mxGeometry x="435" y="758" width="50" height="30" as="geometry" />
        </mxCell>
        <mxCell id="ogpBPKNxfYmx3dcX6W-Z-90" value="YES" style="text;html=1;align=center;verticalAlign=middle;resizable=0;points=[];autosize=1;strokeColor=none;fillColor=none;fontFamily=Times New Roman;fontSize=16;" vertex="1" parent="WIyWlLk6GJQsqaUBKTNV-1">
          <mxGeometry x="364" y="788" width="50" height="30" as="geometry" />
        </mxCell>
      </root>
    </mxGraphModel>
  </diagram>
</mxfile>
